<svg width="44" height="43" viewBox="0 0 44 43" fill="none" xmlns="http://www.w3.org/2000/svg">
<path d="M22.2663 24.4116C21.5702 24.2304 20.7624 23.9803 19.8171 23.6438C19.2242 23.4282 18.5539 23.1694 17.8148 22.8589L16.9727 23.2212C19.2242 24.2045 20.9773 24.7738 22.3007 25.1103L22.2663 24.4116Z" fill="#6A6867"/>
<path d="M14.5232 21.3405C10.9569 19.5635 6.28193 16.855 0.378119 12.6973L0 13.2321C5.60303 17.1741 10.1319 19.8568 13.724 21.6855L14.5232 21.3405Z" fill="#6A6867"/>
<path d="M19.1895 18.8477L19.6106 18.3302C16.9809 15.2335 15.1075 12.016 13.8529 9.46272C11.6873 5.06349 10.8623 1.639 10.8537 1.60449L10.2178 1.75976C10.2178 1.79426 11.0685 5.27914 13.2599 9.73875C14.549 12.3524 16.4739 15.6648 19.1895 18.8477Z" fill="#6A6867"/>
<path d="M21.4496 20.3398L21.0371 20.8488C21.398 21.2111 21.7676 21.582 22.1543 21.9356L22.1113 20.9954C21.8879 20.7798 21.6644 20.5641 21.4496 20.3398Z" fill="#6A6867"/>
<path d="M15.0389 24.1528C14.9702 24.1528 14.9014 24.1528 14.8413 24.1528L14.4116 24.3426C14.2397 24.4116 14.0679 24.4547 13.8788 24.4547C13.3374 24.4547 12.8562 24.1356 12.6413 23.6353C12.5468 23.4196 12.5124 23.1953 12.5382 22.9711C12.3577 22.9021 12.1429 22.9452 12.0054 23.0918C10.9398 24.2305 11.3695 26.0592 12.5468 26.4473C13.8444 26.8786 16.2592 24.1097 15.0475 24.1528H15.0389ZM13.0366 25.2569C12.8562 25.2569 12.7101 25.1103 12.7101 24.9292C12.7101 24.748 12.8562 24.6014 13.0366 24.6014C13.2171 24.6014 13.3632 24.748 13.3632 24.9292C13.3632 25.1103 13.2171 25.2569 13.0366 25.2569Z" fill="#6A6867"/>
<path d="M37.3392 32.8564C38.1813 32.5459 38.6196 31.6057 38.3102 30.7517L37.9407 29.7339C37.9407 29.7252 37.9407 29.7166 37.9321 29.708L35.3025 22.4881C35.1478 22.074 34.8384 21.7376 34.4345 21.5565C34.0306 21.3753 33.5666 21.3667 33.1627 21.5392L31.7963 22.0913C31.7017 22.9539 31.4783 24.5238 31.04 25.9298L32.8189 25.2052L34.9329 30.9932C34.9329 31.0019 34.9329 31.0105 34.9415 31.0191L35.2509 31.8817C35.4915 32.5459 36.1189 32.96 36.7806 32.96C37.4423 32.96 37.1587 32.9255 37.3392 32.8564Z" fill="#6A6867"/>
<path d="M28.213 27.0681L29.0122 26.7404C29.5622 25.7484 29.9145 24.0663 30.1122 22.7552L30.0434 22.7811L29.6567 22.9363L29.6052 21.8926C26.4341 23.5574 23.5896 24.1612 22.6529 24.3337L22.7217 25.7139L22.5068 25.8864C22.9021 26.2228 24.0537 27.1285 25.6177 27.5857L25.8755 27.3787C25.9529 27.3183 26.0302 27.2407 26.0904 27.1717C26.1591 27.094 26.2193 27.0078 26.2708 26.9215C26.3826 27.0078 26.4943 27.0854 26.6232 27.1458C26.838 27.2493 27.0786 27.301 27.3193 27.301C27.5599 27.301 27.7318 27.2665 27.9294 27.1803L28.2216 27.0595L28.213 27.0681Z" fill="#6A6867"/>
<path d="M18.8971 28.7844C18.5619 29.0518 18.3471 29.4486 18.2955 29.8713L17.3244 38.1349C17.2213 39.032 17.8572 39.8515 18.751 39.955C18.8197 39.955 18.8799 39.9636 18.94 39.9636C19.7564 39.9636 20.4611 39.3512 20.5556 38.5145L21.4494 30.9237L24.165 28.7499C22.4376 28.0253 21.3462 26.9816 21.2517 26.8867L18.8885 28.7844H18.8971Z" fill="#6A6867"/>
<path d="M23.2198 15.018C23.1167 15.018 23.0136 15.0439 22.919 15.0784C22.7042 15.1302 22.5151 15.2509 22.3604 15.4321L18.7683 19.8313L13.4575 22.1258C12.9247 22.3587 12.684 22.9711 12.9075 23.5059C13.0793 23.9027 13.4661 24.1443 13.87 24.1443C14.2739 24.1443 14.145 24.1184 14.2825 24.058L19.8339 21.66C19.9886 21.591 20.1261 21.4875 20.2292 21.3581L22.3948 18.7099L22.5839 22.7469C23.6667 22.5312 26.5283 21.8584 29.5361 20.1505L29.3642 16.5189L29.751 16.3292L30.4728 15.9669L34.1251 14.1554C34.4517 13.9915 34.6665 13.681 34.7009 13.3187L35.3884 6.3317C35.4485 5.75377 35.0274 5.24484 34.4517 5.18445C33.8759 5.12407 33.3689 5.54674 33.3087 6.12468L32.6728 12.5251L29.6049 14.0519L28.8142 14.4487L28.2041 14.7506L23.2284 15.0094L23.2198 15.018Z" fill="#6A6867"/>
<path d="M24.9816 13.9136C25.7035 14.0344 26.4167 13.8791 27.0011 13.5341C25.7121 12.8095 25.291 11.9124 25.1535 11.3862C24.423 12.2229 23.7699 12.7319 23.1855 12.913C23.6324 13.4306 24.2598 13.8015 24.9816 13.9223V13.9136Z" fill="#6A6867"/>
<path d="M26.3224 9.84224C26.0303 10.2735 25.7467 10.6531 25.4717 10.9895C25.4889 11.2741 25.6865 12.4128 27.3537 13.284C27.9123 12.8354 28.3076 12.1799 28.4365 11.4208C28.5998 10.4202 28.2474 9.44545 27.5771 8.78125C27.1302 9.08316 26.5115 9.55758 26.3224 9.84224Z" fill="#6A6867"/>
<path d="M26.0045 9.61807C26.3311 9.14364 27.3795 8.44494 27.5256 8.34143C27.7146 8.28968 27.8521 8.2293 27.9123 8.16029C27.9381 8.13441 27.9467 8.10853 27.9467 8.08265C27.9467 8.03952 27.8607 7.98777 27.7318 7.92739C27.5428 7.84113 27.242 7.73762 26.924 7.66861C26.2795 7.14243 25.4459 6.85777 24.5522 6.91815C22.6788 7.04754 21.2608 8.67784 21.3811 10.5583C21.4413 11.464 22.2147 15.1042 25.9959 9.61807H26.0045ZM25.3084 7.98777C25.3686 7.81525 25.635 7.74624 25.9014 7.84113C26.1678 7.93601 26.3311 8.16029 26.2709 8.33281C26.2108 8.50533 25.9444 8.57433 25.678 8.47945C25.4115 8.38456 25.2483 8.16029 25.3084 7.98777Z" fill="#6A6867"/>
<path d="M20.2551 40.5505C19.2497 40.8093 17.4794 40.3952 17.4794 40.3952C16.7919 40.2831 17.1185 42.8019 18.6997 42.5431C20.2809 42.2843 21.2606 40.2917 20.2551 40.5505ZM18.6481 41.9048C18.4677 41.9048 18.3216 41.7581 18.3216 41.577C18.3216 41.3959 18.4677 41.2492 18.6481 41.2492C18.8286 41.2492 18.9747 41.3959 18.9747 41.577C18.9747 41.7581 18.8286 41.9048 18.6481 41.9048Z" fill="#6A6867"/>
<path d="M38.5083 33.2528C37.5888 33.7445 36.1107 33.7445 36.1107 33.7445C35.4146 33.7962 36.2826 36.0217 37.8036 35.5387C39.4966 34.9952 39.4192 32.7611 38.5083 33.2528ZM37.5544 34.7968C37.374 34.7968 37.2279 34.6502 37.2279 34.469C37.2279 34.2879 37.374 34.1413 37.5544 34.1413C37.7349 34.1413 37.881 34.2879 37.881 34.469C37.881 34.6502 37.7349 34.7968 37.5544 34.7968Z" fill="#6A6867"/>
<path d="M33.0002 6.10742C32.6736 6.1333 32.4588 6.1333 32.4588 6.1333C31.9088 6.17643 32.1236 7.27192 32.8197 7.962L33.0002 6.11605V6.10742Z" fill="#6A6867"/>
<path d="M35.6721 6.37462L35.5174 7.91004C36.7033 6.8663 36.4799 4.98585 35.5088 5.5034C35.4916 5.5034 35.483 5.52066 35.4658 5.52066C35.6205 5.76218 35.6978 6.06409 35.6635 6.37462H35.6721Z" fill="#6A6867"/>
<path d="M21.7508 26.5849C21.8109 26.6367 23.2203 27.7753 24.939 28.3705L25.0679 27.9996C23.4093 27.4217 22.0086 26.2917 21.9914 26.2744L21.7422 26.5763L21.7508 26.5849Z" fill="#6A6867"/>
<path d="M30.2582 26.4126C30.2582 26.3867 30.8941 24.1957 31.1519 22.3584L30.7652 22.3066C30.5074 24.1095 29.8973 26.2832 29.8887 26.3091L30.2668 26.4212L30.2582 26.4126Z" fill="#6A6867"/>
<path d="M22.5498 23.3332L22.6271 23.7214C22.8076 23.6869 27.0271 22.8502 29.5966 21.1164L29.3817 20.7886C26.881 22.4793 22.6014 23.3246 22.5584 23.3332H22.5498Z" fill="#6A6867"/>
<path d="M7.11516 13.0857C8.41279 13.517 10.8276 10.748 9.6159 10.7912C8.74794 10.8257 7.75108 10.0925 7.25265 9.67843C7.055 9.51454 6.75423 9.53179 6.57376 9.72156C5.50815 10.8602 5.93783 12.6889 7.11516 13.0771V13.0857ZM7.62218 11.2484C7.80265 11.2484 7.94874 11.395 7.94874 11.5761C7.94874 11.7573 7.80265 11.9039 7.62218 11.9039C7.44171 11.9039 7.29562 11.7573 7.29562 11.5761C7.29562 11.395 7.44171 11.2484 7.62218 11.2484Z" fill="#6A6867"/>
<path d="M9.57358 33.3911C8.16423 32.4681 6.49707 34.7195 6.49707 34.7195C7.39081 35.9271 9.83139 36.1342 9.97748 35.7546C10.1236 35.3837 10.9829 34.3141 9.57358 33.3911ZM8.79156 34.8403C8.6111 34.8403 8.46501 34.6936 8.46501 34.5125C8.46501 34.3313 8.6111 34.1847 8.79156 34.1847C8.97203 34.1847 9.11812 34.3313 9.11812 34.5125C9.11812 34.6936 8.97203 34.8403 8.79156 34.8403Z" fill="#6A6867"/>
<path d="M27.3788 33.4514C27.4304 33.8482 27.1811 35.2025 28.8655 35.3319C30.5413 35.4613 30.928 32.6837 30.928 32.6837C29.5702 32.0454 27.3272 33.046 27.3788 33.4428V33.4514ZM29.1749 34.2623C29.0202 34.3485 28.8225 34.2881 28.7366 34.1329C28.6507 33.9776 28.7108 33.7792 28.8655 33.6929C29.0202 33.6067 29.2178 33.6671 29.3038 33.8223C29.3897 33.9776 29.3296 34.176 29.1749 34.2623Z" fill="#6A6867"/>
<path d="M43.5348 17.1659C42.5036 17.2781 41.1286 16.7174 41.1286 16.7174C40.4583 16.5017 40.4325 18.8911 42.0309 19.0205C43.8012 19.1585 44.566 17.0538 43.5348 17.1659ZM42.4864 18.0458C42.4176 18.2097 42.2286 18.2959 42.0653 18.2269C41.902 18.1579 41.8161 17.9681 41.8848 17.8042C41.9536 17.6403 42.1426 17.5541 42.3059 17.6231C42.4692 17.6921 42.5551 17.8819 42.4864 18.0458Z" fill="#6A6867"/>
<path d="M16.2848 5.59838C18.4418 4.90831 18.3472 2.05312 17.1785 2.68281C16.0098 3.31251 14.1192 3.31251 14.1192 3.31251C13.2255 3.38152 14.334 6.21945 16.2848 5.59838ZM15.9582 3.82144C16.1903 3.82144 16.3707 4.00258 16.3707 4.23548C16.3707 4.46838 16.1903 4.64953 15.9582 4.64953C15.7262 4.64953 15.5457 4.46838 15.5457 4.23548C15.5457 4.00258 15.7262 3.82144 15.9582 3.82144Z" fill="#6A6867"/>
</svg>
