<svg width="44" height="46" viewBox="0 0 44 46" fill="none" xmlns="http://www.w3.org/2000/svg">
<path d="M11.0003 38.2493C12.4178 38.2493 13.5669 37.0959 13.5669 35.673C13.5669 34.2501 12.4178 33.0967 11.0003 33.0967C9.58273 33.0967 8.43359 34.2501 8.43359 35.673C8.43359 37.0959 9.58273 38.2493 11.0003 38.2493Z" fill="#6A6867"/>
<path d="M16.8667 39.7212L14.245 38.4054C14.0434 38.3042 13.8142 38.249 13.585 38.249H8.41501C8.18585 38.249 7.96585 38.3042 7.75501 38.4054L5.13334 39.7212L0.733334 38.9851L0 41.1934L5.13334 42.6656L7.33334 41.9295V45.61H14.6667V41.9295L16.8667 42.6656L22 41.1934V38.9851L16.8667 39.7212Z" fill="#6A6867"/>
<path d="M27.1333 39.7212L29.755 38.4054C29.9567 38.3042 30.1858 38.249 30.415 38.249H35.585C35.8142 38.249 36.0342 38.3042 36.245 38.4054L38.8667 39.7212L43.2667 38.9851L44 41.1934L38.8667 42.6656L36.6667 41.9295V45.61H29.3333V41.9295L27.1333 42.6656L22 41.1934V38.9851L27.1333 39.7212Z" fill="#6A6867"/>
<path d="M33.0003 38.2493C34.4178 38.2493 35.5669 37.0959 35.5669 35.673C35.5669 34.2501 34.4178 33.0967 33.0003 33.0967C31.5827 33.0967 30.4336 34.2501 30.4336 35.673C30.4336 37.0959 31.5827 38.2493 33.0003 38.2493Z" fill="#6A6867"/>
<path d="M25.8597 11.1702C25.8597 11.299 25.7955 11.4186 25.6855 11.4923L23.458 12.8724V16.7185L24.6588 18.3471H32.1939L25.8597 8.49268V11.1702Z" fill="#6A6867"/>
<path d="M18.0128 11.6215L14.9053 15.2008L15.8769 15.3664L17.4353 14.3727C17.5544 14.299 17.7103 14.299 17.8294 14.3727L18.7919 14.9615L19.6994 14.0782L18.9569 13.0109L18.0128 11.6123V11.6215Z" fill="#6A6867"/>
<path d="M20.2953 14.5566L19.0944 15.6791C18.9753 15.7895 18.7919 15.8079 18.6453 15.7159L17.6461 15.0994L16.1611 16.0472C16.0969 16.084 16.0328 16.1024 15.9594 16.1024H15.8953L14.3369 15.8263L12.1553 18.329H23.742L21.102 14.7314L20.3045 14.5474L20.2953 14.5566Z" fill="#6A6867"/>
<path d="M21.3961 14.0505C21.4786 14.0689 21.5611 14.1241 21.6161 14.1886L22.7344 15.6791V12.6428C22.7344 12.5139 22.7986 12.3943 22.9086 12.3299L25.1361 10.9497V8.2998L23.7244 10.1676C23.6511 10.2597 23.5503 10.3149 23.4311 10.3149H21.9094L19.7461 12.8268L20.4153 13.8113L21.3961 14.0413V14.0505Z" fill="#6A6867"/>
<path d="M25.8597 11.1702C25.8597 11.299 25.7955 11.4186 25.6855 11.4923L23.458 12.8724V16.7185L24.6588 18.3471H32.1939L25.8597 8.49268V11.1702Z" fill="#6A6867"/>
<path d="M18.0128 11.6215L14.9053 15.2008L15.8769 15.3664L17.4353 14.3727C17.5544 14.299 17.7103 14.299 17.8294 14.3727L18.7919 14.9615L19.6994 14.0782L18.9569 13.0109L18.0128 11.6123V11.6215Z" fill="#6A6867"/>
<path d="M20.2953 14.5566L19.0944 15.6791C18.9753 15.7895 18.7919 15.8079 18.6453 15.7159L17.6461 15.0994L16.1611 16.0472C16.0969 16.084 16.0328 16.1024 15.9594 16.1024H15.8953L14.3369 15.8263L12.1553 18.329H23.742L21.102 14.7314L20.3045 14.5474L20.2953 14.5566Z" fill="#6A6867"/>
<path d="M21.3961 14.0505C21.4786 14.0689 21.5611 14.1241 21.6161 14.1886L22.7344 15.6791V12.6428C22.7344 12.5139 22.7986 12.3943 22.9086 12.3299L25.1361 10.9497V8.2998L23.7244 10.1676C23.6511 10.2597 23.5503 10.3149 23.4311 10.3149H21.9094L19.7461 12.8268L20.4153 13.8113L21.3961 14.0413V14.0505Z" fill="#6A6867"/>
<path d="M35.8788 13.9306C35.8788 21.6227 29.6638 27.8611 22.0004 27.8611C14.3371 27.8611 8.12207 21.6319 8.12207 13.9306C8.12207 6.22919 14.3371 0 22.0004 0C29.6638 0 35.8788 6.23839 35.8788 13.9306ZM22.0004 1.69301C15.2629 1.69301 9.80874 7.16771 9.80874 13.9306C9.80874 20.6934 15.2629 26.1681 22.0004 26.1681C28.7379 26.1681 34.1921 20.6934 34.1921 13.9306C34.1921 7.16771 28.7288 1.69301 22.0004 1.69301Z" fill="#6A6867"/>
</svg>
