<svg width="44" height="51" viewBox="0 0 44 51" fill="none" xmlns="http://www.w3.org/2000/svg">
<path d="M16.4512 4.46505H9.68107C9.38841 4.46505 9.14453 4.23004 9.14453 3.92649C9.14453 3.62294 9.37866 3.38794 9.68107 3.38794H16.4512C16.7438 3.38794 16.9877 3.62294 16.9877 3.92649C16.9877 4.23004 16.7536 4.46505 16.4512 4.46505Z" fill="#6A6867"/>
<path d="M14.3148 8.10763H9.68107C9.38841 8.10763 9.14453 7.87262 9.14453 7.56907C9.14453 7.26552 9.37866 7.03052 9.68107 7.03052H14.3148C14.6074 7.03052 14.8513 7.26552 14.8513 7.56907C14.8513 7.87262 14.6172 8.10763 14.3148 8.10763Z" fill="#6A6867"/>
<path d="M43.9504 39.3144L42.0384 32.8714C41.9018 32.4111 41.258 32.3622 41.0434 32.793L38.0388 39.05H34.4099L33.5904 34.3402H38.0876C38.2924 34.3402 38.468 34.2226 38.5656 34.0464L41.775 27.711C41.8336 27.5935 41.8531 27.4467 41.814 27.3194L39.902 20.8763C39.7655 20.4161 39.1216 20.3671 38.907 20.798L35.9024 27.055H32.332L30.9565 19.1138H37.7169C38.0095 19.1138 38.2534 18.8788 38.2534 18.5752V6.85432C38.2534 6.56056 38.0193 6.31577 37.7169 6.31577C37.4145 6.31577 37.1803 6.55077 37.1803 6.85432V18.0367H6.78317V1.06732H39.5996C39.8923 1.06732 40.1362 0.83231 40.1362 0.528762C40.1362 0.225213 39.8923 0 39.5996 0H4.38339C4.09074 0 3.84686 0.235005 3.84686 0.538554C3.84686 0.842102 4.08098 1.07711 4.38339 1.07711H5.71985V18.585C5.71985 18.8788 5.95398 19.1236 6.25639 19.1236H13.0167L11.6412 27.0648H8.07085L5.06625 20.8078C4.8614 20.3769 4.2078 20.4259 4.07123 20.8861L2.15921 27.3292C2.12019 27.4565 2.12994 27.6033 2.19823 27.7208L5.40769 34.0562C5.49548 34.2324 5.68083 34.3499 5.88569 34.3499H10.3828L9.5634 39.0598H5.93447L2.92987 32.8028C2.72501 32.372 2.07141 32.4209 1.93484 32.8812L0.0228228 39.3242C-0.016198 39.4515 -0.00644263 39.5984 0.0618437 39.7159L3.2713 46.0512C3.3591 46.2275 3.54445 46.345 3.7493 46.345H4.28584V49.6155C4.28584 49.9093 4.51996 50.154 4.82237 50.154C5.12479 50.154 5.35891 49.919 5.35891 49.6155V46.345H8.30498L7.79771 49.2434C7.7782 49.6155 7.95379 49.8211 8.32449 49.8701H35.678C36.0487 49.8211 36.2243 49.6155 36.2048 49.2434L35.6975 46.345H38.6436V49.6155C38.6436 49.9093 38.8777 50.154 39.1801 50.154C39.4826 50.154 39.7167 49.919 39.7167 49.6155V46.345H40.2532C40.4581 46.345 40.6337 46.2275 40.7312 46.0512L43.9407 39.7159C43.9992 39.5984 44.0187 39.4515 43.9797 39.3242L43.9504 39.3144ZM8.48057 45.2581H4.07123L1.1154 39.4123L2.56893 34.5066L5.11503 39.8236C5.20283 40.0097 5.38818 40.1272 5.59303 40.1272H9.36829L8.48057 45.2679V45.2581ZM6.20761 33.263L3.25179 27.4173L4.70531 22.5115L7.25142 27.8285C7.33921 28.0146 7.52456 28.1321 7.72942 28.1321H11.4559L10.5682 33.2728H6.21737L6.20761 33.263ZM32.5271 28.1223H36.2536C36.4584 28.1223 36.6438 28.0048 36.7316 27.8188L39.2777 22.5018L40.7312 27.4075L37.7754 33.2533H33.4246L32.5369 28.1125L32.5271 28.1223ZM39.9118 45.2581H35.5024L34.6147 40.1174H38.39C38.5948 40.1174 38.7802 39.9999 38.868 39.8138L41.4141 34.4968L42.8676 39.4026L39.9118 45.2483V45.2581Z" fill="#6A6867"/>
<path d="M12.0605 15.6962C11.9337 15.6962 11.8069 15.6473 11.7191 15.5494C11.5337 15.3535 11.5337 15.05 11.7191 14.8541L16.6942 9.88965C16.7918 9.80152 16.9088 9.74277 17.0454 9.74277C17.1722 9.74277 17.2991 9.80152 17.3966 9.88965L20.967 13.6399L25.7763 7.61793C25.8641 7.50043 26.0007 7.43188 26.147 7.43188C26.2933 7.43188 26.4299 7.49064 26.5177 7.60814L32.3025 14.4527C32.4781 14.6583 32.4489 14.9716 32.244 15.1381C32.0391 15.3144 31.727 15.285 31.5611 15.0793L26.1665 8.68525L21.3767 14.6779C21.2889 14.7856 21.1621 14.8541 21.0158 14.8639C20.8792 14.8639 20.7426 14.815 20.6451 14.717L17.0357 10.9178L12.4117 15.5298C12.3142 15.6277 12.1873 15.6767 12.0703 15.6767L12.0605 15.6962Z" fill="#6A6867"/>
<path d="M12.0605 15.6962C11.9337 15.6962 11.8069 15.6473 11.7191 15.5494C11.5337 15.3535 11.5337 15.05 11.7191 14.8541L16.6942 9.88965C16.7918 9.80152 16.9088 9.74277 17.0454 9.74277C17.1722 9.74277 17.2991 9.80152 17.3966 9.88965L20.967 13.6399L25.7763 7.61793C25.8641 7.50043 26.0007 7.43188 26.147 7.43188C26.2933 7.43188 26.4299 7.49064 26.5177 7.60814L32.3025 14.4527C32.4781 14.6583 32.4489 14.9716 32.244 15.1381C32.0391 15.3144 31.727 15.285 31.5611 15.0793L26.1665 8.68525L21.3767 14.6779C21.2889 14.7856 21.1621 14.8541 21.0158 14.8639C20.8792 14.8639 20.7426 14.815 20.6451 14.717L17.0357 10.9178L12.4117 15.5298C12.3142 15.6277 12.1873 15.6767 12.0703 15.6767L12.0605 15.6962Z" fill="#6A6867"/>
</svg>
