<svg width="51" height="52" viewBox="0 0 51 52" fill="none" xmlns="http://www.w3.org/2000/svg">
<path d="M50.0982 41.5215L49.2765 34.9135C49.2559 34.7789 49.1943 34.6667 49.0916 34.5993L46.154 32.5687L45.1474 29.4498C45.1166 29.3376 45.0344 29.2479 44.942 29.1918L40.1966 26.6002L39.416 22.3258C39.3955 22.2136 39.3338 22.1014 39.2414 22.0453L36.8071 20.2727L33.5511 16.7163L31.9796 14.9886L31.1887 12.397C31.1579 12.296 31.0962 12.2063 31.0141 12.1502L27.0391 9.54736C27.8916 7.48306 28.7544 5.1383 28.7544 4.03884C28.7544 1.80626 27.1007 0 25.0567 0C23.0127 0 21.359 1.80626 21.359 4.03884C21.359 6.27141 22.1807 7.37087 23.0127 9.39029H21.7699C21.5953 9.39029 21.4309 9.5137 21.3796 9.6932L18.9966 17.5016L12.6798 18.3655C12.5154 18.3879 12.3819 18.5113 12.3408 18.6796L9.94759 27.408L3.59991 29.1357C3.48693 29.1694 3.39449 29.2479 3.34313 29.3489L0.0563082 35.6315C-0.0566764 35.8447 0.0049515 36.1251 0.200107 36.2485C0.395262 36.3719 0.652045 36.3046 0.765029 36.0915L3.88751 30.1118L8.75612 31.6263L6.6505 34.6891C6.51697 34.891 6.54778 35.1715 6.73267 35.3174C6.80457 35.3735 6.88674 35.4071 6.97918 35.4071C7.00999 35.4071 7.04081 35.4071 7.07162 35.3959L14.467 33.6009C14.6724 33.5448 14.8162 33.3316 14.7854 33.096L13.9945 27.0378L16.3158 24.5023C16.4493 24.3564 16.4802 24.1096 16.3672 23.9413L13.4501 19.162L19.3664 18.3543C19.5205 18.3318 19.654 18.2196 19.7053 18.0513L22.078 10.2766H23.3928C23.5571 10.658 23.7112 11.017 23.855 11.3536C22.8381 11.6677 22.191 12.3633 22.191 13.1823C22.191 14.0013 23.4544 15.1905 25.067 15.1905C26.6796 15.1905 27.9429 14.3154 27.9429 13.1823C27.9429 12.0492 27.2856 11.6677 26.279 11.3536C26.4125 11.0395 26.5666 10.7029 26.7104 10.3551L30.48 12.8233L31.2503 15.3588C31.2709 15.4261 31.3017 15.4822 31.353 15.5383L32.9348 17.266L34.4447 21.3946L32.1747 23.874C32.0104 24.0535 32.0104 24.334 32.1747 24.5135C32.2158 24.5584 32.2569 24.592 32.3083 24.6145L35.5643 26.0393L29.8123 29.1806C29.6069 29.2928 29.5247 29.562 29.6274 29.7864C29.648 29.8425 29.6891 29.8874 29.7199 29.921L36.1292 36.0466L35.328 43.8887C35.3075 44.1355 35.4616 44.3599 35.6875 44.3823C35.78 44.3823 35.8621 44.3823 35.9443 44.3262L44.1614 38.9411C44.2435 38.885 44.3052 38.7953 44.336 38.6943L45.9383 33.455L48.4959 35.2276L49.297 41.6224C49.3278 41.8693 49.5333 42.0488 49.749 42.0151C49.9749 41.9814 50.1393 41.7571 50.1085 41.5215C50.1085 41.5215 50.1085 41.5215 50.1085 41.5102L50.0982 41.5215ZM25.0362 0.908738C26.6282 0.908738 27.9121 2.31111 27.9121 4.05005C27.9121 5.40755 26.0838 9.71564 25.0362 12.0268C23.9885 9.71564 22.1602 5.40755 22.1602 4.05005C22.1602 2.31111 23.4441 0.908738 25.0362 0.908738ZM15.1757 45.291C15.8536 45.291 16.4083 44.6852 16.4083 43.9448C16.4083 43.2043 15.8536 42.5985 15.1757 42.5985C14.4978 42.5985 13.9431 43.2043 13.9431 43.9448C13.9431 44.6852 14.4978 45.291 15.1757 45.291ZM27.0904 4.05005C27.0904 2.81597 26.166 1.80626 25.0362 1.80626C23.9063 1.80626 22.9819 2.81597 22.9819 4.05005C22.9819 5.28414 23.9063 6.29385 25.0362 6.29385C26.166 6.29385 27.0904 5.28414 27.0904 4.05005ZM31.6098 34.532C31.353 34.532 31.1065 34.6218 30.9011 34.7789L21.2871 27.2734C21.3179 27.1499 21.3385 27.0265 21.3385 26.9031C21.3385 26.8807 21.3385 26.8695 21.3385 26.847L27.3986 24.1994C27.8505 24.7603 28.6209 24.8164 29.1344 24.3228C29.648 23.8291 29.6993 22.9877 29.2474 22.4268C28.8263 21.8995 28.097 21.8097 27.5835 22.236L24.5842 20.0483C24.5842 20.0259 24.5945 20.0035 24.5945 19.981L28.0457 19.4425C28.3641 20.1044 29.1036 20.3625 29.7096 20.0147C30.3156 19.6669 30.5519 18.8591 30.2335 18.1972C29.9767 17.6699 29.4426 17.3782 28.8982 17.5016L27.3575 15.7402C27.2034 15.5607 26.9466 15.5495 26.772 15.7178C26.6077 15.8861 26.5974 16.1666 26.7515 16.3573L28.1586 17.9728C28.0354 18.1411 27.9429 18.343 27.9019 18.5562L24.4507 19.0947C24.1323 18.4328 23.3928 18.1748 22.7867 18.5225C22.1807 18.8703 21.9445 19.6781 22.2629 20.34C22.5813 21.0019 23.3209 21.26 23.9269 20.9122C23.9885 20.8785 24.0398 20.8337 24.1015 20.7888L27.1007 22.9765C27.0802 23.0887 27.0596 23.1896 27.0596 23.3018C27.0596 23.3243 27.0596 23.3355 27.0596 23.3579L20.9995 26.0056C20.5476 25.4447 19.7772 25.3886 19.2637 25.8822C18.7501 26.3758 18.6988 27.2173 19.1507 27.7782C19.5616 28.2943 20.2703 28.384 20.7838 27.9914L30.3978 35.4969C30.367 35.6203 30.3464 35.7437 30.3464 35.8671C30.3464 35.8895 30.3464 35.9008 30.3464 35.9232L24.2864 38.5709C23.8344 38.0099 23.0641 37.9538 22.5505 38.4475C22.0369 38.9411 21.9856 39.7825 22.4375 40.3435C22.8484 40.8595 23.5571 40.9493 24.0707 40.5566L27.9327 43.5745C27.9019 43.6979 27.8813 43.8214 27.8813 43.9448C27.8813 43.9784 27.8813 44.0009 27.8813 44.0345L17.5689 48.9036C17.2608 48.5894 16.9013 48.3538 16.4904 48.2192C17.1991 46.7271 18.0106 44.8086 18.0106 43.8662C18.0106 42.1273 16.7267 40.7249 15.1346 40.7249C13.5426 40.7249 12.2586 42.1273 12.2586 43.8662C12.2586 45.6052 13.0701 46.7271 13.7788 48.2192C12.8544 48.5558 12.2586 49.2289 12.2586 49.9918C12.2586 51.1137 13.522 52 15.1346 52C16.7472 52 18.0106 51.1249 18.0106 49.9918C18.0106 49.8908 18.0003 49.7899 17.9798 49.6889L28.1997 44.8647C28.6619 45.4145 29.4426 45.4481 29.9459 44.9433C30.4492 44.4384 30.48 43.5858 30.0178 43.036C29.5966 42.5424 28.9085 42.4639 28.4052 42.8453L24.5431 39.8274C24.574 39.704 24.5945 39.5806 24.5945 39.4572C24.5945 39.4347 24.5945 39.4235 24.5945 39.4011L30.6546 36.7534C31.1065 37.3143 31.8769 37.3704 32.3904 36.8768C32.904 36.3832 32.9554 35.5417 32.5034 34.9808C32.2672 34.6891 31.9282 34.5208 31.579 34.5208L31.6098 34.532ZM15.1757 41.6337C16.3055 41.6337 17.23 42.6434 17.23 43.8775C17.23 44.6403 15.299 48.8587 15.1757 49.0831C15.0524 48.8475 13.1214 44.6291 13.1214 43.8775C13.1214 42.6434 14.0459 41.6337 15.1757 41.6337ZM1.2067 47.9948C0.980727 47.9948 0.795843 47.7929 0.795843 47.5461C0.795843 47.4227 0.836929 47.3105 0.919099 47.2319L4.05185 43.8101L3.27123 39.5581C3.23015 39.3113 3.37395 39.0757 3.58964 39.0308C3.62046 39.0308 3.641 39.0308 3.67181 39.0308H8.50961L13.3577 36.3832C13.4912 36.3159 13.6453 36.3271 13.7685 36.4056L16.2336 38.2006C16.4185 38.3353 16.4699 38.6157 16.3466 38.8177C16.3055 38.8738 16.2645 38.9299 16.2028 38.9635L1.40185 47.9387C1.34022 47.9724 1.26832 47.9948 1.2067 47.9948Z" fill="#6A6867"/>
</svg>
